<!-- Generator: Adobe Illustrator 20.0.0, SVG Export Plug-In . SVG Version: 6.00 Build 0)  -->
<svg xmlns="http://www.w3.org/2000/svg" xmlns:xlink="http://www.w3.org/1999/xlink" version="1.1" id="レイヤー_1" preserveAspectRatio="none" x="0px" y="0px" viewBox="0 0 271.367 42.52" width="128" height="20" style="enable-background:new 0 0 271.367 42.52;" xml:space="preserve">
  <g>
    <g>
      <g>
        <g>
          <path d="M152.282,28.705h3.362v-4.847h-3.86v-3.569h5.113v-4.842h-5.113V11.63h3.421V6.614h-22.028      c0.413-0.565,0.768-1.122,1.105-1.675l-5.189-2.421c-1.354,2.058-3.088,4.188-5.134,6.226c-1.042,1.042-2.109,2-3.176,2.877      l4.573,3.134c0.519-0.404,1.033-0.843,1.561-1.295v1.987h-5.079v4.842h5.079v3.569h-3.543v4.847h3.455      c-1.257,2.459-3.349,5.332-4.885,6.724l4.442,3.379c2.177-2.075,4.21-4.952,5.749-8.335l-3.434-1.768h22.184l-3.56,2.088      c1.75,2.32,3.77,5.252,4.948,7.689l4.897-2.472C156.117,33.817,154.126,30.726,152.282,28.705z M146.398,23.858h-1.363v-3.569      h1.363V23.858z M140.079,20.289v3.569h-1.426v-3.569H140.079z M138.653,15.447V11.63h1.426v3.817H138.653z M146.398,15.447      h-1.363V11.63h1.363V15.447z M132.292,11.63h1.392v3.817h-1.392V11.63z M132.292,20.289h1.392v3.569h-1.392V20.289z" />
          <path d="M132.95,30.342c0.772,1.721,1.974,6.445,1.982,7.867l5.294-1.169c-0.604-3.585-1.16-5.538-2.446-7.939L132.95,30.342z" />
          <path d="M140.045,30.658c0.958,1.624,2.666,5.884,2.856,7.588l5.395-1.358c-0.734-3.248-1.717-5.387-3.058-7.678L140.045,30.658      z" />
        </g>
        <path d="M195.452,7.234h-16.414v0.844l-3.454-3.193c-2.759,1.657-7.036,3.016-11.921,3.632c-0.064,0-0.109,0.009-0.173,0.017     v28.41h5.792v-1.865h8.867v-5.682h-8.867v-6.602h8.867v-5.374h-8.867v-4.649c3.843-0.759,7.213-1.873,9.756-3.214v29.249h5.859     V12.672h4.69v16.725h-3.821l1.961,6.012h2.881c2.674,0,4.842-2.051,4.842-4.573C195.452,30.367,195.452,7.234,195.452,7.234z" />
        <path d="M225.624,30.329c0.46-0.427,0.945-0.873,1.418-1.329c1.577-1.59,2.944-3.201,4.016-4.703l-1.595-1.548V7.445h-9.727     V2.932h-6.302v4.514H203.5v24.892c-0.004,0-0.013,0-0.022,0c-1.215,0.266-2.408,0.515-3.589,0.733l1.207,5.935     c0.628-0.135,1.249-0.287,1.873-0.434c5.361-1.278,10.237-2.813,14.08-4.366l-0.017-3.699c3.568,3.772,8.588,7.04,14.186,8.897     l3.075-5.129C230.939,33.164,228.016,31.844,225.624,30.329z M223.186,18.847h-13.612v-1.29h13.612V18.847z M224.106,23.888     c-0.439,0.562-0.911,1.144-1.43,1.721c-0.4,0.456-0.814,0.903-1.227,1.325c-0.89-0.958-1.628-1.979-2.189-3.046H224.106z      M223.186,12.267v1.315h-13.612v-1.315H223.186z M209.574,30.844v-6.956h2.978c0.726,1.721,1.792,3.438,3.143,5.092     C213.813,29.637,211.771,30.257,209.574,30.844z" />
        <g>
          <path d="M264.858,5.547h-0.004h-20.399v14.507h20.399L264.858,5.547z M250.082,10.33h9.145v4.746h-9.145V10.33z" />
          <path d="M237.984,21.774v17.05h5.623v-1.219h4.463v1.211h5.627V21.774h-0.013H237.984z M243.606,32.784v-5.977h4.463v5.977      H243.606z" />
          <path d="M271.367,21.774h-15.949v17.05h5.749v-1.219h4.455v1.211h5.746V21.774L271.367,21.774z M261.167,32.784v-5.977h4.455      v5.977H261.167z" />
        </g>
      </g>
      <g>
        <g>
          <polygon points="103.363,41.528 93.577,41.528 93.577,0.013 103.372,0.013     " />
          <polygon points="26.006,11.769 20.399,41.532 13.549,41.528 7.914,11.769 7.914,41.528 0,41.439 0,0.013 12.06,0 16.957,25.963      21.863,0 34.345,0 34.345,41.532 26.006,41.532     " />
        </g>
        <path d="M64.619,31.151c0,7.167-5.842,11.33-13.013,11.33c-7.179,0-13.022-4.163-13.022-11.334L38.551,0h9.794l0.025,30.97     c0,1.776,1.456,3.219,3.235,3.219c1.776,0,3.24-1.442,3.24-3.219L54.858,0h9.799L64.619,31.151z" />
        <path d="M89.338,32.438c0,6.269-5.1,10.082-11.359,10.082c-6.265,0-11.351-3.813-11.351-10.082     c-0.029-1.561-0.025-3.863-0.025-6.061l8.715-0.009v6.078c0,1.169,0.945,2.118,2.122,2.118c1.168,0,2.13-0.949,2.13-2.118     L79.573,0h9.794L89.338,32.438z" />
      </g>
    </g>
  </g>
</svg>